<?xml version="1.0" standalone="no"?>
<!DOCTYPE svg PUBLIC "-//W3C//DTD SVG 20010904//EN"
 "http://www.w3.org/TR/2001/REC-SVG-20010904/DTD/svg10.dtd">
<svg version="1.0" xmlns="http://www.w3.org/2000/svg"
 width="128.000000pt" height="128.000000pt" viewBox="0 0 128.000000 128.000000"
 preserveAspectRatio="xMidYMid meet">

<g transform="translate(0.000000,128.000000) scale(0.100000,-0.100000)"
fill="#000000" stroke="none">
<path d="M9 1184 c-9 -11 -10 -20 -2 -32 8 -14 30 -18 120 -20 l110 -3 67
-303 67 -303 -30 -31 c-26 -25 -31 -38 -31 -77 0 -62 36 -100 105 -111 l48 -7
-26 -14 c-29 -15 -57 -60 -57 -93 0 -53 57 -110 110 -110 53 0 110 57 110 110
0 33 -28 78 -58 94 -24 14 -5 15 213 15 143 0 231 -4 219 -9 -63 -25 -84 -115
-39 -168 81 -97 233 1 179 115 -10 21 -30 41 -47 48 l-29 12 40 6 c46 8 61 34
38 69 0 1 -165 5 -366 8 l-365 5 0 30 0 30 363 5 c296 4 364 8 371 19 5 8 44
135 86 283 61 214 74 272 65 283 -10 12 -87 15 -478 17 l-467 3 -13 60 c-7 32
-18 65 -24 72 -7 9 -46 13 -138 13 -104 0 -130 -3 -141 -16z"/>
</g>
</svg>
